<mxfile host="app.diagrams.net" modified="2023-09-21T23:38:59.632Z" agent="Mozilla/5.0 (Windows NT 10.0; Win64; x64) AppleWebKit/537.36 (KHTML, like Gecko) Chrome/116.0.0.0 Safari/537.36" version="21.8.0" etag="jBHLKuHkJVrr9FjUQ0F9" type="github">
  <diagram name="PÃ¡gina-1" id="AnpP4iYHoy9CgL9pg3Zn">
    <mxGraphModel>
      <root>
        <mxCell id="0" />
        <mxCell id="1" parent="0" />
      </root>
    </mxGraphModel>
  </diagram>
</mxfile>
